<svg width="35" height="35" viewBox="0 0 35 35" fill="none" xmlns="http://www.w3.org/2000/svg">
<path d="M34.5874 17.341C34.5874 26.8677 26.8647 34.5905 17.3382 34.5905C7.81162 34.5905 0.0888672 26.8677 0.0888672 17.341C0.0888672 7.81455 7.81162 0.0917969 17.3382 0.0917969C26.8646 0.0917969 34.5874 7.81455 34.5874 17.341Z" fill="#262626"/>
<g opacity="0.8">
<path d="M17.2826 9.3374L17.176 9.69953V20.2077L17.2826 20.3141L22.1604 17.4308L17.2826 9.3374Z" fill="#CAFF33"/>
<path d="M17.2828 9.3374L12.405 17.4308L17.2828 20.3141V15.2138V9.3374Z" fill="#CAFF33"/>
<path d="M17.2827 21.9013L17.2227 21.9745V25.7178L17.2827 25.8931L22.1634 19.0195L17.2827 21.9013Z" fill="#CAFF33"/>
<path d="M17.2826 25.8932V21.9013L12.4048 19.0195L17.2826 25.8932Z" fill="#CAFF33"/>
<path d="M17.2827 20.3142L22.1604 17.4309L17.2827 15.2139V20.3142Z" fill="#CAFF33"/>
<path d="M12.4048 17.4309L17.2825 20.3142V15.2139L12.4048 17.4309Z" fill="#CAFF33"/>
</g>
</svg>
