<svg width="39" height="39" viewBox="0 0 39 39" fill="none" xmlns="http://www.w3.org/2000/svg">
<rect width="38.1496" height="38.1496" rx="19.0748" fill="#CAFF33"/>
<path fill-rule="evenodd" clip-rule="evenodd" d="M19.0744 13.2222C19.4336 13.2222 19.7247 13.5133 19.7247 13.8724V18.4244H24.2766C24.6358 18.4244 24.9269 18.7155 24.9269 19.0747C24.9269 19.4338 24.6358 19.7249 24.2766 19.7249H19.7247V24.2769C19.7247 24.636 19.4336 24.9272 19.0744 24.9272C18.7153 24.9272 18.4241 24.636 18.4241 24.2769V19.7249H13.8722C13.5131 19.7249 13.2219 19.4338 13.2219 19.0747C13.2219 18.7155 13.5131 18.4244 13.8722 18.4244L18.4241 18.4244V13.8724C18.4241 13.5133 18.7153 13.2222 19.0744 13.2222Z" fill="#1A1A1A"/>
</svg>
