<svg width="98" height="98" viewBox="0 0 98 98" fill="none" xmlns="http://www.w3.org/2000/svg">
<rect width="98" height="98" rx="49" fill="url(#paint0_linear_4_9866)" fill-opacity="0.05"/>
<rect x="12" y="12" width="74" height="74" rx="37" fill="url(#paint1_linear_4_9866)" fill-opacity="0.1"/>
<rect x="12.5" y="12.5" width="73" height="73" rx="36.5" stroke="url(#paint2_linear_4_9866)" stroke-opacity="0.2"/>
<path d="M46.8789 53.1812C45.9243 53.1812 45.3651 52.6438 45.3651 51.6794V50.5634C41.3556 50.2878 37.3597 49.4612 33.2139 47.8768V45.6036C38.3144 47.863 43.4286 48.6621 48.9928 48.6621C54.5707 48.6621 59.6848 47.863 64.7853 45.6036V47.8768C60.6394 49.4612 56.6435 50.2878 52.6341 50.5634V51.6794C52.6341 52.6438 52.0749 53.1812 51.1202 53.1812H46.8789ZM37.4279 62.343H60.5712C63.3943 62.343 64.7853 60.9653 64.7853 58.1409V44.7356C64.7853 41.9113 63.3943 40.5335 60.5712 40.5335H37.4279C34.6186 40.5335 33.2139 41.9113 33.2139 44.7356V58.1409C33.2139 60.9653 34.6186 62.343 37.4279 62.343ZM42.0784 41.7322H44.1923V39.2936C44.1923 38.2465 44.806 37.6541 45.8697 37.6541H52.1294C53.1932 37.6541 53.7933 38.2465 53.7933 39.2936V41.7046H55.9071V39.4451C55.9071 36.855 54.5569 35.6426 52.0886 35.6426H45.8969C43.5649 35.6426 42.0784 36.855 42.0784 39.4451V41.7322Z" fill="#CAFF33"/>
<defs>
<linearGradient id="paint0_linear_4_9866" x1="49" y1="0" x2="49" y2="98" gradientUnits="userSpaceOnUse">
<stop stop-color="#CAFF33"/>
<stop offset="1" stop-color="#CAFF33" stop-opacity="0"/>
</linearGradient>
<linearGradient id="paint1_linear_4_9866" x1="49" y1="-37" x2="49" y2="203" gradientUnits="userSpaceOnUse">
<stop stop-color="#CAFF33"/>
<stop offset="0.467671" stop-color="#CAFF33" stop-opacity="0"/>
</linearGradient>
<linearGradient id="paint2_linear_4_9866" x1="49" y1="-116.5" x2="49" y2="153" gradientUnits="userSpaceOnUse">
<stop stop-color="#CAFF33"/>
<stop offset="0.716291" stop-color="#CAFF33" stop-opacity="0"/>
</linearGradient>
</defs>
</svg>
