<svg width="219" height="200" viewBox="0 0 219 200" fill="none" xmlns="http://www.w3.org/2000/svg">
<g opacity="0.4">
<path d="M155.688 1.45927L195.723 0L194.271 40.0496L187.598 39.8161L188.619 11.8347L59.5665 140.936L54.8475 136.215L183.907 7.10664L155.929 8.12813L155.688 1.45927Z" fill="url(#paint0_linear_4_17378)" style="mix-blend-mode:screen"/>
<path d="M128.396 89.5918L128.199 84.0466L161.479 82.8281L160.276 116.129L154.726 115.932L155.579 92.6709L48.2906 200L44.3667 196.075L151.662 88.7382L128.396 89.5918Z" fill="url(#paint1_linear_4_17378)" style="mix-blend-mode:screen"/>
<path d="M173.981 103.674L173.886 100.982L190.041 100.391L189.458 116.559L186.766 116.464L187.175 105.17L135.091 157.273L133.188 155.369L185.271 103.265L173.981 103.674Z" fill="url(#paint2_linear_4_17378)" style="mix-blend-mode:screen"/>
<path d="M104.809 101.93L104.714 99.2375L120.869 98.6465L120.285 114.808L117.594 114.713L118.003 103.426L65.9192 155.521L64.0156 153.617L116.106 101.514L104.809 101.93Z" fill="url(#paint3_linear_4_17378)" style="mix-blend-mode:screen"/>
<path d="M75.8166 15.9572L75.7217 13.2648L91.877 12.6738L91.2862 28.8352L88.5949 28.7404L89.0106 17.4529L36.9273 69.5488L35.0237 67.6445L87.107 15.5413L75.8166 15.9572Z" fill="url(#paint4_linear_4_17378)" style="mix-blend-mode:screen"/>
<path d="M187.97 52.935L187.919 51.5706L196.117 51.2715L195.818 59.4726L194.454 59.4288L194.665 53.6939L168.233 80.1358L167.271 79.1654L193.695 52.7235L187.97 52.935Z" fill="url(#paint5_linear_4_17378)" style="mix-blend-mode:screen"/>
<path d="M93.5691 77.1948L93.5254 75.8304L101.723 75.5312L101.424 83.7323L100.06 83.6886L100.265 77.9536L73.84 104.396L72.87 103.425L99.3019 76.9905L93.5691 77.1948Z" fill="url(#paint6_linear_4_17378)" style="mix-blend-mode:screen"/>
<path d="M210.251 98.1655L210.208 96.8011L218.406 96.502L218.107 104.703L216.743 104.659L216.947 98.9243L190.522 125.366L189.552 124.396L215.984 97.9612L210.251 98.1655Z" fill="url(#paint7_linear_4_17378)" style="mix-blend-mode:screen"/>
<path d="M130.949 2.75732L130.905 1.3929L139.103 1.09375L138.804 9.29484L137.44 9.24376L137.644 3.51613L111.22 29.9508L110.25 28.9877L136.681 2.54572L130.949 2.75732Z" fill="url(#paint8_linear_4_17378)" style="mix-blend-mode:screen"/>
<path d="M110.359 68.4023L111.205 45.1416L3.92394 152.471L0 148.545L107.296 41.2089L84.0291 42.0625L83.8322 36.51L117.113 35.2988L115.909 68.5993L110.359 68.4023Z" fill="url(#paint9_linear_4_17378)" style="mix-blend-mode:screen"/>
</g>
<defs>
<linearGradient id="paint0_linear_4_17378" x1="180.481" y1="-8.80183" x2="85.3747" y2="155.846" gradientUnits="userSpaceOnUse">
<stop offset="0.11" stop-color="#CAFF33"/>
<stop offset="1" stop-color="#191919" stop-opacity="0"/>
</linearGradient>
<linearGradient id="paint1_linear_4_17378" x1="148.809" y1="75.5104" x2="69.7361" y2="212.391" gradientUnits="userSpaceOnUse">
<stop offset="0.11" stop-color="#CAFF33"/>
<stop offset="1" stop-color="#191919" stop-opacity="0"/>
</linearGradient>
<linearGradient id="paint2_linear_4_17378" x1="183.89" y1="96.8382" x2="145.503" y2="163.288" gradientUnits="userSpaceOnUse">
<stop offset="0.11" stop-color="#CAFF33"/>
<stop offset="1" stop-color="#191919" stop-opacity="0"/>
</linearGradient>
<linearGradient id="paint3_linear_4_17378" x1="114.718" y1="95.0945" x2="76.3386" y2="161.54" gradientUnits="userSpaceOnUse">
<stop offset="0.11" stop-color="#CAFF33"/>
<stop offset="1" stop-color="#191919" stop-opacity="0"/>
</linearGradient>
<linearGradient id="paint4_linear_4_17378" x1="85.726" y1="9.12184" x2="47.3466" y2="75.5676" gradientUnits="userSpaceOnUse">
<stop offset="0.11" stop-color="#CAFF33"/>
<stop offset="1" stop-color="#191919" stop-opacity="0"/>
</linearGradient>
<linearGradient id="paint5_linear_4_17378" x1="192.996" y1="49.4688" x2="173.516" y2="83.1861" gradientUnits="userSpaceOnUse">
<stop offset="0.11" stop-color="#CAFF33"/>
<stop offset="1" stop-color="#191919" stop-opacity="0"/>
</linearGradient>
<linearGradient id="paint6_linear_4_17378" x1="98.6017" y1="73.7286" x2="79.1239" y2="107.45" gradientUnits="userSpaceOnUse">
<stop offset="0.11" stop-color="#CAFF33"/>
<stop offset="1" stop-color="#191919" stop-opacity="0"/>
</linearGradient>
<linearGradient id="paint7_linear_4_17378" x1="215.284" y1="94.6993" x2="195.806" y2="128.421" gradientUnits="userSpaceOnUse">
<stop offset="0.11" stop-color="#CAFF33"/>
<stop offset="1" stop-color="#191919" stop-opacity="0"/>
</linearGradient>
<linearGradient id="paint8_linear_4_17378" x1="135.981" y1="-0.708447" x2="116.511" y2="33.0088" gradientUnits="userSpaceOnUse">
<stop offset="0.11" stop-color="#CAFF33"/>
<stop offset="1" stop-color="#191919" stop-opacity="0"/>
</linearGradient>
<linearGradient id="paint9_linear_4_17378" x1="104.442" y1="27.9811" x2="25.3694" y2="164.862" gradientUnits="userSpaceOnUse">
<stop offset="0.11" stop-color="#CAFF33"/>
<stop offset="1" stop-color="#191919" stop-opacity="0"/>
</linearGradient>
</defs>
</svg>
