<svg width="39" height="39" viewBox="0 0 39 39" fill="none" xmlns="http://www.w3.org/2000/svg">
<rect width="38.1496" height="38.1496" rx="19.0748" fill="#CAFF33"/>
<path fill-rule="evenodd" clip-rule="evenodd" d="M22.4046 11.0006C22.1114 11.3164 22.1296 11.8101 22.4455 12.1034L24.6308 14.1327L15.6933 14.1327C15.2624 14.1327 14.913 14.482 14.913 14.913C14.913 15.344 15.2624 15.6933 15.6933 15.6933L24.6308 15.6933L22.4455 17.7226C22.1296 18.0159 22.1114 18.5096 22.4046 18.8254C22.6979 19.1412 23.1916 19.1595 23.5074 18.8663L27.149 15.4848C27.308 15.3372 27.3983 15.13 27.3983 14.913C27.3983 14.696 27.308 14.4888 27.149 14.3412L23.5074 10.9597C23.1916 10.6665 22.6979 10.6848 22.4046 11.0006ZM15.7449 19.3241C15.4517 19.0083 14.9579 18.99 14.6421 19.2833L11.0006 22.6647C10.8416 22.8124 10.7512 23.0196 10.7512 23.2365C10.7512 23.4535 10.8416 23.6607 11.0006 23.8084L14.6421 27.1898C14.9579 27.4831 15.4517 27.4648 15.7449 27.149C16.0382 26.8332 16.0199 26.3394 15.7041 26.0462L13.5187 24.0169H22.4562C22.8872 24.0169 23.2365 23.6675 23.2365 23.2365C23.2365 22.8056 22.8872 22.4562 22.4562 22.4562H13.5187L15.7041 20.4269C16.0199 20.1337 16.0382 19.6399 15.7449 19.3241Z" fill="#1C1C1C"/>
</svg>
