<svg width="35" height="35" viewBox="0 0 35 35" fill="none" xmlns="http://www.w3.org/2000/svg">
<path d="M34.1613 21.5359C31.8452 30.8256 22.4357 36.4787 13.1449 34.1626C3.85838 31.8466 -1.79524 22.437 0.521376 13.1478C2.83636 3.85701 12.2453 -1.79715 21.5335 0.518919C30.8237 2.83499 36.4768 12.2456 34.1607 21.5359H34.1613Z" fill="#262626"/>
<path d="M18.1829 9.65869L17.6653 11.7368C18.0115 11.8158 18.3597 11.8964 18.6985 11.981L19.2131 9.9165L20.5042 10.2378L19.9758 12.3579C21.6054 12.9193 22.7965 13.7614 22.5627 15.3267C22.3932 16.4721 21.7583 17.0269 20.9153 17.2222C22.073 17.8254 22.6621 18.7504 22.1008 20.353C21.4049 22.3431 19.7489 22.5107 17.5481 22.0942L17.0139 24.2349L15.7239 23.9136L16.2502 21.8013C15.9158 21.7182 15.5736 21.6302 15.2219 21.5347L14.6926 23.6567L13.4036 23.3345L13.9377 21.1899C13.6367 21.1127 13.3303 21.0309 13.0178 20.9526L11.3381 20.5337L11.9788 19.0562C11.9788 19.0562 12.9301 19.3083 12.9172 19.2896C13.2826 19.3799 13.4441 19.1417 13.5081 18.9829L14.3528 15.5991L14.4885 15.6333C14.4372 15.6128 14.3907 15.5995 14.3547 15.5903L14.9573 13.1743C14.9734 12.9002 14.878 12.5548 14.3557 12.4243C14.3758 12.4108 13.4306 12.1938 13.4182 12.1909L13.761 10.812L15.5413 11.2563L15.5403 11.2632C15.8078 11.3297 16.0837 11.3936 16.3645 11.4575L16.8928 9.3374L18.1829 9.65869ZM15.6409 19.981C16.5162 20.1986 19.2153 21.0642 19.6145 19.4614C20.0301 17.79 17.2248 17.3575 16.3499 17.1392L15.6409 19.981ZM16.6731 15.8384C17.4021 16.02 19.649 16.7611 20.0129 15.3032C20.3923 13.7824 18.0447 13.4438 17.3157 13.2622L16.6731 15.8384Z" fill="#CAFF33"/>
</svg>
