<svg width="60" height="60" viewBox="0 0 60 60" fill="none" xmlns="http://www.w3.org/2000/svg">
<path d="M21.269 47.8232C21.269 49.204 20.1498 50.3232 18.769 50.3232H7.50049C6.11978 50.3232 5.00049 49.204 5.00049 47.8232V38.7158C5.00049 35.4599 5.59543 32.0839 6.77686 28.5908L6.77783 28.5879C7.99342 25.0629 9.63817 21.7397 11.7114 18.6191V18.6172C13.5098 15.925 15.4946 13.5878 17.6655 11.6084C18.4988 10.8489 19.728 10.8004 20.6431 11.4102L26.6694 15.4258C27.8098 16.1857 28.1142 17.7081 27.4194 18.8652C25.8007 21.5605 24.409 24.3538 23.2476 27.2461L23.2485 27.2471C21.8966 30.665 21.2342 34.4482 21.269 38.6025V47.8232ZM48.1489 47.8232C48.1489 49.2039 47.0296 50.3232 45.6489 50.3232H34.3804C32.9997 50.3232 31.8804 49.204 31.8804 47.8232V38.7158C31.8804 35.4599 32.4743 32.0839 33.6558 28.5908L33.6567 28.5879C34.8723 25.0629 36.5171 21.7397 38.5903 18.6191L38.5913 18.6172C40.3896 15.9251 42.3736 13.5877 44.5444 11.6084C45.3777 10.8487 46.6078 10.8003 47.5229 11.4102L53.5493 15.4258C54.6896 16.1856 54.994 17.7082 54.2993 18.8652C52.6806 21.5604 51.2889 24.3539 50.1274 27.2461L50.1284 27.2471C48.7764 30.6651 48.1141 34.4482 48.1489 38.6025V47.8232Z" fill="url(#paint0_linear_4_9920)" stroke="#CAFF33"/>
<defs>
<linearGradient id="paint0_linear_4_9920" x1="30.2064" y1="11" x2="30.2064" y2="49.8235" gradientUnits="userSpaceOnUse">
<stop stop-color="#CAFF33"/>
<stop offset="1" stop-color="#191919"/>
</linearGradient>
</defs>
</svg>
