<svg width="35" height="35" viewBox="0 0 35 35" fill="none" xmlns="http://www.w3.org/2000/svg">
<path d="M34.5871 17.341C34.5871 26.8677 26.8645 34.5905 17.338 34.5905C7.81137 34.5905 0.088623 26.8677 0.088623 17.341C0.088623 7.81455 7.81137 0.0917969 17.338 0.0917969C26.8644 0.0917969 34.5871 7.81455 34.5871 17.341Z" fill="#262626"/>
<path d="M22.1855 24.5485L21.7875 22.7411C21.7649 22.6348 21.7081 22.5552 21.6169 22.5024C21.5184 22.4492 21.4199 22.4419 21.3215 22.4798L21.2645 22.5024L21.1279 22.5364C21.0672 22.5514 20.9971 22.5686 20.9176 22.5875C20.838 22.6065 20.7453 22.6253 20.6391 22.6443C20.5333 22.6633 20.421 22.6804 20.3038 22.6956C20.1864 22.7104 20.0597 22.7239 19.9231 22.7353C19.7866 22.7465 19.6503 22.7523 19.5138 22.7523C18.5512 22.7523 17.6852 22.4928 16.9161 21.9736C16.1468 21.4543 15.5803 20.7514 15.2165 19.8648H19.6159C19.6994 19.8648 19.7752 19.8365 19.8431 19.7795C19.9116 19.7228 19.9533 19.6528 19.9681 19.5691L20.241 18.2958C20.2638 18.1825 20.241 18.08 20.173 17.989C20.0972 17.898 20.0022 17.8524 19.8887 17.8524H14.6709C14.6482 17.3371 14.6482 16.9392 14.6709 16.6588H20.2186C20.4234 16.6588 20.5445 16.5603 20.5824 16.3633L20.8552 15.0673C20.8778 14.9612 20.8517 14.8628 20.7756 14.7718C20.7077 14.6808 20.6129 14.6351 20.4917 14.6351H15.1712C15.5501 13.7863 16.1185 13.1194 16.8765 12.6344C17.6344 12.1492 18.4908 11.9067 19.4457 11.9067C19.4761 11.8916 19.5878 11.8954 19.7809 11.9181C19.9741 11.9407 20.0842 11.9503 20.1106 11.9465C20.1368 11.9427 20.2357 11.9542 20.4061 11.9805C20.5767 12.007 20.662 12.0203 20.662 12.0203L20.8609 12.0601C20.9179 12.0715 20.9615 12.0809 20.9917 12.0885L21.0372 12.0999C21.1357 12.1303 21.2264 12.1208 21.3101 12.0715C21.3935 12.0221 21.4466 11.9483 21.4694 11.8498L21.9583 10.0423C21.9809 9.94375 21.9694 9.85281 21.9242 9.76947C21.8559 9.67836 21.78 9.62154 21.6967 9.59889C20.9995 9.4246 20.2641 9.3374 19.4912 9.3374C17.7933 9.3374 16.2759 9.82258 14.9381 10.7925C13.6004 11.7626 12.6777 13.0435 12.1699 14.635H11.0559C10.9497 14.635 10.8626 14.6691 10.7944 14.7373C10.7263 14.8054 10.6921 14.8926 10.6921 14.9988V16.2948C10.6921 16.4008 10.7262 16.488 10.7944 16.5561C10.8627 16.6244 10.9499 16.6583 11.0559 16.6583H11.8176C11.7947 17.0222 11.7911 17.4199 11.8061 17.8521H11.0559C10.9574 17.8521 10.8721 17.8881 10.8001 17.9601C10.7282 18.032 10.6921 18.1173 10.6921 18.2157V19.5004C10.6921 19.599 10.7282 19.6841 10.8001 19.7563C10.8722 19.8283 10.9574 19.864 11.0559 19.864H12.1359C12.6134 21.5389 13.5153 22.871 14.8416 23.86C16.168 24.8493 17.7179 25.3436 19.4912 25.3436C19.6353 25.3436 19.7811 25.3401 19.929 25.3322C20.0771 25.3246 20.2152 25.3131 20.3441 25.2982C20.4728 25.2831 20.5998 25.2663 20.7249 25.2472C20.8499 25.2281 20.9636 25.2095 21.0658 25.1902C21.1682 25.1714 21.2648 25.1525 21.3557 25.1337C21.4467 25.1145 21.5282 25.0939 21.6003 25.071C21.6722 25.0485 21.7326 25.0313 21.782 25.0202C21.8314 25.0088 21.8711 24.9953 21.9013 24.9804L21.9582 24.9689C22.0416 24.9387 22.1061 24.8836 22.1515 24.8039C22.197 24.7248 22.2081 24.6394 22.1855 24.5485Z" fill="#CAFF33"/>
</svg>
