<svg width="24" height="24" viewBox="0 0 24 24" fill="none" xmlns="http://www.w3.org/2000/svg">
<path d="M10.5024 14.9515C9.82851 14.9515 9.43379 14.5721 9.43379 13.8914V13.1036C6.60356 12.9091 3.78295 12.3256 0.856445 11.2072V9.60259C4.45681 11.1975 8.06681 11.7616 11.9945 11.7616C15.9318 11.7616 19.5418 11.1975 23.1422 9.60259V11.2072C20.2157 12.3256 17.395 12.9091 14.5648 13.1036V13.8914C14.5648 14.5721 14.1701 14.9515 13.4962 14.9515H10.5024ZM3.83108 21.4186H20.1675C22.1602 21.4186 23.1422 20.4462 23.1422 18.4525V8.98991C23.1422 6.99624 22.1602 6.02373 20.1675 6.02373H3.83108C1.84799 6.02373 0.856445 6.99624 0.856445 8.98991V18.4525C0.856445 20.4462 1.84799 21.4186 3.83108 21.4186ZM7.11378 6.86982H8.6059V5.14846C8.6059 4.40934 9.03911 3.99117 9.78999 3.99117H14.2086C14.9595 3.99117 15.3831 4.40934 15.3831 5.14846V6.85036H16.8752V5.25544C16.8752 3.4271 15.9221 2.57129 14.1798 2.57129H9.80921C8.16308 2.57129 7.11378 3.4271 7.11378 5.25544V6.86982Z" fill="#B3B3B3"/>
</svg>
