<svg width="94" height="94" viewBox="0 0 94 94" fill="none" xmlns="http://www.w3.org/2000/svg">
<rect width="94" height="94" rx="47" fill="url(#paint0_linear_4_10872)" fill-opacity="0.05"/>
<rect x="12" y="12" width="70" height="70" rx="35" fill="url(#paint1_linear_4_10872)" fill-opacity="0.1"/>
<rect x="12.5" y="12.5" width="69" height="69" rx="34.5" stroke="url(#paint2_linear_4_10872)" stroke-opacity="0.2"/>
<path d="M58.0533 53.4313C57.6374 54.3921 57.1451 55.2765 56.5748 56.0896C55.7973 57.198 55.1608 57.9653 54.6702 58.3914C53.9097 59.0907 53.095 59.4489 52.2225 59.4693C51.5961 59.4693 50.8407 59.291 49.9614 58.9295C49.0792 58.5696 48.2685 58.3914 47.5272 58.3914C46.7498 58.3914 45.916 58.5696 45.0241 58.9295C44.1309 59.291 43.4114 59.4795 42.8612 59.4981C42.0245 59.5338 41.1906 59.1654 40.3581 58.3914C39.8268 57.928 39.1622 57.1335 38.3661 56.0081C37.512 54.8063 36.8097 53.4127 36.2596 51.8238C35.6704 50.1077 35.375 48.4458 35.375 46.837C35.375 44.994 35.7732 43.4045 36.5709 42.0725C37.1977 41.0026 38.0317 40.1586 39.0755 39.539C40.1193 38.9194 41.2471 38.6037 42.4616 38.5835C43.1262 38.5835 43.9977 38.7891 45.0807 39.1931C46.1606 39.5984 46.854 39.804 47.158 39.804C47.3853 39.804 48.1556 39.5636 49.4615 39.0844C50.6964 38.64 51.7387 38.456 52.5925 38.5285C54.9062 38.7152 56.6444 39.6273 57.8004 41.2704C55.7311 42.5242 54.7076 44.2802 54.7279 46.533C54.7466 48.2876 55.3832 49.7478 56.6342 50.9072C57.2011 51.4453 57.8343 51.8612 58.5388 52.1565C58.386 52.5996 58.2247 53.0239 58.0533 53.4313ZM52.747 32.5506C52.747 33.926 52.2445 35.2101 51.243 36.3987C50.0344 37.8116 48.5725 38.6281 46.9873 38.4993C46.9671 38.3343 46.9554 38.1606 46.9554 37.9782C46.9554 36.6579 47.5301 35.2449 48.5508 34.0896C49.0604 33.5046 49.7085 33.0182 50.4944 32.6303C51.2787 32.2481 52.0205 32.0367 52.7181 32.0005C52.7385 32.1843 52.747 32.3682 52.747 32.5506V32.5506Z" fill="#CAFF33"/>
<defs>
<linearGradient id="paint0_linear_4_10872" x1="47" y1="0" x2="47" y2="94" gradientUnits="userSpaceOnUse">
<stop stop-color="#CAFF33"/>
<stop offset="1" stop-color="#CAFF33" stop-opacity="0"/>
</linearGradient>
<linearGradient id="paint1_linear_4_10872" x1="47" y1="-34.3514" x2="47" y2="192.676" gradientUnits="userSpaceOnUse">
<stop stop-color="#CAFF33"/>
<stop offset="0.467671" stop-color="#CAFF33" stop-opacity="0"/>
</linearGradient>
<linearGradient id="paint2_linear_4_10872" x1="47" y1="-109.554" x2="47" y2="145.378" gradientUnits="userSpaceOnUse">
<stop stop-color="#CAFF33"/>
<stop offset="0.716291" stop-color="#CAFF33" stop-opacity="0"/>
</linearGradient>
</defs>
</svg>
