<svg width="78" height="78" viewBox="0 0 78 78" fill="none" xmlns="http://www.w3.org/2000/svg">
<rect width="78" height="78" rx="39" fill="url(#paint0_linear_4_10010)" fill-opacity="0.05"/>
<rect x="10" y="10" width="58" height="58" rx="29" fill="url(#paint1_linear_4_10010)" fill-opacity="0.1"/>
<rect x="10.5" y="10.5" width="57" height="57" rx="28.5" stroke="url(#paint2_linear_4_10010)" stroke-opacity="0.2"/>
<g clip-path="url(#clip0_4_10010)">
<path d="M48.6577 38.0185C48.6577 38.7663 48.6677 39.5093 48.6527 40.2571C48.6426 40.6606 48.7581 41.0148 48.9688 41.3494C49.5108 42.2251 50.2285 42.9582 50.9562 43.6815C51.2272 43.9521 51.5082 44.2079 51.7943 44.4588C51.9348 44.5818 52.0001 44.7098 52.0001 44.9016C51.99 45.7233 51.99 46.54 51.995 47.3617C52.0001 48.0456 51.6989 48.5572 51.0716 48.8426C50.4292 49.1329 49.827 49.0099 49.3001 48.5622C48.211 47.6274 47.127 46.6876 46.043 45.7528C45.3053 45.1132 44.5726 44.4638 43.8198 43.8438C43.5538 43.6224 43.2376 43.4601 42.9315 43.2928C42.4798 43.0468 41.993 42.9139 41.466 42.9336C41.0846 42.9484 40.6932 42.9533 40.3118 42.9238C39.7547 42.8795 39.3582 42.5007 39.283 41.9791C39.2127 41.5216 39.4887 41.0296 39.9504 40.8524C40.1261 40.7836 40.3218 40.754 40.5125 40.754C41.9579 40.7442 43.4032 40.7491 44.8536 40.7491C45.3956 40.7491 45.5913 40.5572 45.5913 40.021C45.5913 38.9385 45.5863 37.8561 45.5913 36.7737C45.5963 36.3604 45.4508 36.0357 45.1346 35.7553C43.3129 34.1513 41.5012 32.5376 39.6844 30.9238C39.1976 30.4908 39.1424 29.8512 39.5489 29.3838C39.9504 28.9164 40.6079 28.8721 41.1248 29.2657C43.4484 31.0369 45.767 32.8082 48.1006 34.5695C48.487 34.8598 48.6677 35.2141 48.6627 35.6815C48.6527 36.4588 48.6577 37.2362 48.6577 38.0185Z" fill="#CAFF33"/>
<path d="M25.005 46.2056C25.005 45.7628 25.01 45.32 25 44.8772C24.995 44.705 25.0652 44.5918 25.1807 44.4737C25.9385 43.7111 26.6863 42.9387 27.429 42.1613C27.5846 41.9989 27.7 41.807 27.8355 41.6299C28.1918 41.1527 28.3574 40.6312 28.3424 40.0211C28.3123 38.6139 28.3474 37.2019 28.3273 35.7898C28.3173 35.2339 28.518 34.8403 28.9747 34.4958C31.2933 32.764 33.5868 31.0026 35.8903 29.2462C36.3721 28.8772 37.0346 28.9362 37.426 29.379C37.8275 29.8316 37.7924 30.4811 37.3257 30.9042C36.618 31.5438 35.9004 32.1687 35.1877 32.8034C34.0586 33.8021 32.9294 34.8058 31.8002 35.8046C31.5342 36.0407 31.4037 36.3261 31.4037 36.6705C31.4037 37.8169 31.3987 38.9633 31.4037 40.1145C31.4037 40.5377 31.6245 40.7443 32.0612 40.7443C33.5517 40.7492 35.0372 40.7443 36.5277 40.7492C37.2303 40.7492 37.7221 41.2314 37.7071 41.8808C37.697 42.3778 37.3307 42.8255 36.8238 42.8993C36.5227 42.9436 36.2065 42.9633 35.9004 42.9337C34.8716 42.8353 34.0034 43.2043 33.2355 43.8046C32.4526 44.4147 31.7199 45.0936 30.9721 45.7382C29.8731 46.6828 28.779 47.6373 27.6749 48.577C26.7816 49.3396 25.4617 49.0051 25.0803 47.9177C25.0301 47.78 25.0151 47.6275 25.01 47.4848C25 47.0617 25.005 46.6336 25.005 46.2056Z" fill="#CAFF33"/>
<path d="M39.2126 39.0369C39.2126 39.2731 39.2126 39.4945 39.2126 39.7356C38.7911 39.7356 38.3896 39.7356 37.9529 39.7356C37.9529 39.5437 37.9479 39.3567 37.9529 39.1698C37.958 39.032 37.9178 38.973 37.7723 38.9385C37.3557 38.8401 36.9693 38.6728 36.608 38.3875C36.8388 38.0874 37.0596 37.802 37.2604 37.5363C37.6418 37.679 37.9881 37.8463 38.3544 37.9299C38.6204 37.989 38.9165 37.9496 39.1925 37.9053C39.4033 37.8709 39.5388 37.7085 39.5539 37.4871C39.574 37.2608 39.4535 37.1033 39.2528 37.0246C38.9115 36.8967 38.5552 36.7983 38.2089 36.6851C37.958 36.6015 37.697 36.5277 37.4511 36.4244C36.874 36.1833 36.5678 35.7552 36.5528 35.1255C36.5377 34.4662 36.7886 33.9348 37.3909 33.6495C37.7823 33.4625 38.1186 33.3247 37.9228 32.7786C38.3494 32.7786 38.7208 32.7737 39.0972 32.7885C39.1373 32.7885 39.2076 32.9115 39.2076 32.9803C39.2327 33.3985 39.2327 33.3887 39.6292 33.5265C39.86 33.6052 40.0808 33.7183 40.3318 33.8315C40.121 34.1513 39.9503 34.4318 39.7596 34.6974C39.7295 34.7368 39.6091 34.7319 39.5388 34.7122C39.2076 34.6286 38.8864 34.5203 38.5552 34.4564C38.4247 34.4318 38.2741 34.4711 38.1386 34.5056C37.9379 34.5597 37.8024 34.6925 37.7873 34.909C37.7723 35.1206 37.8676 35.2829 38.0634 35.3616C38.3193 35.465 38.5803 35.5437 38.8412 35.6273C39.1273 35.7208 39.4234 35.7897 39.6994 35.893C40.4974 36.1981 40.8186 36.6802 40.7784 37.4723C40.7383 38.2005 40.2816 38.7417 39.5288 38.9533C39.4384 38.9828 39.3431 39.0074 39.2126 39.0369Z" fill="#CAFF33"/>
</g>
<defs>
<linearGradient id="paint0_linear_4_10010" x1="39" y1="0" x2="39" y2="78" gradientUnits="userSpaceOnUse">
<stop stop-color="#CAFF33"/>
<stop offset="1" stop-color="#CAFF33" stop-opacity="0"/>
</linearGradient>
<linearGradient id="paint1_linear_4_10010" x1="39" y1="-28.4054" x2="39" y2="159.703" gradientUnits="userSpaceOnUse">
<stop stop-color="#CAFF33"/>
<stop offset="0.467671" stop-color="#CAFF33" stop-opacity="0"/>
</linearGradient>
<linearGradient id="paint2_linear_4_10010" x1="39" y1="-90.7162" x2="39" y2="120.514" gradientUnits="userSpaceOnUse">
<stop stop-color="#CAFF33"/>
<stop offset="0.716291" stop-color="#CAFF33" stop-opacity="0"/>
</linearGradient>
<clipPath id="clip0_4_10010">
<rect width="27" height="20" fill="white" transform="translate(25 29)"/>
</clipPath>
</defs>
</svg>
