<svg width="78" height="78" viewBox="0 0 78 78" fill="none" xmlns="http://www.w3.org/2000/svg">
<rect width="78" height="78" rx="39" fill="url(#paint0_linear_4_9997)" fill-opacity="0.05"/>
<rect x="10" y="10" width="58" height="58" rx="29" fill="url(#paint1_linear_4_9997)" fill-opacity="0.1"/>
<rect x="10.5" y="10.5" width="57" height="57" rx="28.5" stroke="url(#paint2_linear_4_9997)" stroke-opacity="0.2"/>
<g clip-path="url(#clip0_4_9997)">
<path d="M41.6921 30.8782C41.7251 30.9166 41.7306 30.9276 41.7361 30.9276C42.2805 31.0046 42.5334 31.4115 42.8248 31.8184C43.1603 32.2804 43.5617 32.7038 43.9906 33.0887C45.1179 34.106 45.8107 35.3377 46.0417 36.8389C46.4431 39.4673 44.9364 42.1672 42.4619 43.2175C38.7062 44.8122 34.5106 42.3872 34.0762 38.3291C33.8453 36.168 34.6371 34.3809 36.2867 32.9732C36.8201 32.5168 37.2655 31.9889 37.634 31.3895C37.6999 31.2796 37.8209 31.1916 37.9364 31.1366C38.1234 31.0486 38.3323 30.9991 38.5688 30.9166C38.4918 30.8232 38.4368 30.7572 38.3763 30.6912C38.0079 30.3118 37.6395 29.9214 37.2655 29.5529C37.1336 29.421 37.0731 29.2835 37.0786 29.0965C37.0896 28.3157 37.0841 27.5404 37.0841 26.7595C37.0841 26.4461 37.469 25.9457 37.7824 25.8852C38.1398 25.8137 38.5083 25.7752 38.8657 25.7038C38.9702 25.6818 39.0856 25.6158 39.1461 25.5333C39.6685 24.8294 40.5868 24.8239 41.1037 25.5223C41.1752 25.6158 41.3127 25.6873 41.4281 25.7148C41.7581 25.7862 42.0935 25.8247 42.4289 25.8852C42.7644 25.9512 43.1218 26.3856 43.1218 26.7265C43.1218 27.5129 43.1163 28.3047 43.1273 29.091C43.1328 29.2945 43.0668 29.432 42.9293 29.5749C42.5114 29.9983 42.11 30.4327 41.6921 30.8782ZM39.3826 33.941C39.3661 34.007 39.3496 34.0455 39.3551 34.0785C39.4266 34.4469 39.2561 34.6064 38.9152 34.7438C38.2663 35.0133 37.9749 35.5576 37.9914 36.256C38.0079 36.9488 38.3818 37.3778 39.0087 37.6032C39.2836 37.7022 39.5695 37.7737 39.8445 37.8672C40.0974 37.9496 40.3504 38.0321 40.5923 38.1311C40.7958 38.2136 40.9113 38.373 40.8893 38.604C40.8673 38.8404 40.7188 38.9779 40.5098 39.0164C40.2954 39.0604 40.0644 39.0989 39.861 39.0494C39.4651 38.9559 39.0856 38.7965 38.6677 38.6535C38.4808 38.9009 38.2663 39.1814 38.0079 39.5278C38.3983 39.6983 38.7337 39.8742 39.0911 39.9952C39.2946 40.0612 39.3771 40.1492 39.3496 40.3581C39.3331 40.5066 39.3441 40.6606 39.3441 40.831C39.6575 40.831 39.9215 40.831 40.1854 40.831C40.5648 40.831 40.5813 40.831 40.5593 40.4406C40.5483 40.1987 40.6033 40.0667 40.8673 40.0337C41.0047 40.0172 41.1422 39.9402 41.2687 39.8687C41.8516 39.5498 42.0935 39.0384 42.0825 38.3895C42.0715 37.7737 41.7636 37.3503 41.2137 37.1028C40.9662 36.9928 40.7023 36.9104 40.4384 36.8224C40.1084 36.7124 39.7785 36.6134 39.4486 36.4924C39.2451 36.4155 39.1626 36.2505 39.1791 36.0305C39.1956 35.8216 39.3221 35.6786 39.5146 35.6456C39.7455 35.6071 39.9929 35.5851 40.2184 35.6236C40.4933 35.6731 40.7518 35.7996 41.0432 35.8986C41.2247 35.6181 41.4116 35.3212 41.6316 34.9748C41.3787 34.8593 41.1642 34.7163 40.9332 34.6778C40.6088 34.6228 40.5098 34.4744 40.5483 34.1664C40.5593 34.095 40.4604 33.952 40.3999 33.9465C40.0699 33.93 39.7235 33.941 39.3826 33.941Z" fill="#CAFF33"/>
<path d="M39.6796 52.9888C38.5083 52.9888 37.3316 52.9558 36.1603 52.9998C35.374 53.0273 34.7031 52.7908 34.0708 52.3729C33.1745 51.7735 32.3552 51.0917 31.6403 50.2778C30.5845 49.0736 29.5178 47.8694 28.462 46.6651C27.5987 45.6753 27.9891 44.2126 29.2208 43.8112C29.3638 43.7617 29.5288 43.7452 29.6772 43.7452C30.656 43.7397 31.6403 43.7342 32.6191 43.7507C32.7566 43.7507 32.9215 43.8222 33.0205 43.9157C33.6914 44.5646 34.3512 45.2299 35.0056 45.8953C35.1376 46.0273 35.2585 46.0547 35.4455 46.0273C35.8414 45.9668 36.2483 45.9118 36.6497 45.9118C38.5028 45.9008 40.3504 45.9063 42.2035 45.9063C42.8359 45.9063 43.3033 46.2307 43.4683 46.7696C43.7212 47.5834 43.1273 48.3478 42.22 48.3533C40.9938 48.3588 39.7621 48.3533 38.5358 48.3533C38.3159 48.3533 38.0959 48.3478 37.876 48.3533C37.4801 48.3643 37.2216 48.6172 37.2161 48.9746C37.2161 49.3375 37.4746 49.6125 37.865 49.6125C39.8171 49.618 41.7691 49.618 43.7212 49.6125C44.1171 49.6125 44.4031 49.3925 44.678 49.1286C45.9537 47.9024 47.2295 46.6761 48.5107 45.4554C49.0331 44.955 49.7259 44.933 50.2208 45.3784C50.7542 45.8623 50.7652 46.6431 50.2263 47.1875C49.6599 47.7649 49.0826 48.3093 48.5107 48.8646C47.246 50.0909 45.9812 51.3116 44.722 52.5379C44.4141 52.8348 44.0731 52.9888 43.6387 52.9888C42.319 52.9833 40.9993 52.9888 39.6796 52.9888Z" fill="#CAFF33"/>
<path d="M33.136 29.751C33.6694 30.2844 34.2028 30.8177 34.7252 31.3401C34.4007 31.6646 34.0598 32.0055 33.7189 32.3409C33.213 31.8185 32.6796 31.2687 32.1682 30.7408C32.4706 30.4328 32.8116 30.0809 33.136 29.751Z" fill="#CAFF33"/>
<path d="M47.0205 29.751C47.3449 30.0754 47.6803 30.4218 47.9937 30.7353C47.4714 31.2577 46.927 31.802 46.3991 32.3244C46.0802 32.0055 45.7447 31.6591 45.4093 31.3236C45.9317 30.8122 46.4706 30.2844 47.0205 29.751Z" fill="#CAFF33"/>
<path d="M48.2852 38.4171C48.2852 37.9497 48.2797 37.5208 48.2907 37.0919C48.2907 37.0369 48.3952 36.9379 48.4502 36.9379C49.121 36.9269 49.7864 36.9269 50.4572 36.9379C50.5122 36.9379 50.6167 37.0204 50.6167 37.0644C50.6277 37.5098 50.6222 37.9552 50.6222 38.4171C49.8359 38.4171 49.077 38.4171 48.2852 38.4171Z" fill="#CAFF33"/>
<path d="M31.8547 38.4336C31.0959 38.4336 30.3865 38.4391 29.6717 38.4281C29.6167 38.4281 29.5287 38.3236 29.5232 38.2632C29.5122 37.8782 29.5067 37.4933 29.5232 37.1084C29.5232 37.0479 29.6332 36.9379 29.6937 36.9379C30.3536 36.9269 31.0134 36.9269 31.6733 36.9379C31.7338 36.9379 31.8437 37.0259 31.8437 37.0809C31.8602 37.5098 31.8547 37.9497 31.8547 38.4336Z" fill="#CAFF33"/>
</g>
<defs>
<linearGradient id="paint0_linear_4_9997" x1="39" y1="0" x2="39" y2="78" gradientUnits="userSpaceOnUse">
<stop stop-color="#CAFF33"/>
<stop offset="1" stop-color="#CAFF33" stop-opacity="0"/>
</linearGradient>
<linearGradient id="paint1_linear_4_9997" x1="39" y1="-28.4054" x2="39" y2="159.703" gradientUnits="userSpaceOnUse">
<stop stop-color="#CAFF33"/>
<stop offset="0.467671" stop-color="#CAFF33" stop-opacity="0"/>
</linearGradient>
<linearGradient id="paint2_linear_4_9997" x1="39" y1="-90.7162" x2="39" y2="120.514" gradientUnits="userSpaceOnUse">
<stop stop-color="#CAFF33"/>
<stop offset="0.716291" stop-color="#CAFF33" stop-opacity="0"/>
</linearGradient>
<clipPath id="clip0_4_9997">
<rect width="22.6277" height="28" fill="white" transform="translate(28 25)"/>
</clipPath>
</defs>
</svg>
